#!OML:ASF X:\für Bonn\!DataBase\2005_08_12_Daniel\c3d\Daniel.ASF
:FULLY-SPECIFIED
:DEGREES
69
root 11.1791 17.8089 -2.54767 539.084 95.8165 -1977.62
lowerback 25.2808 -1.20769 1.95572
upperback 2.71439 -0.819589 -0.0856511
thorax -11.118 -0.377466 -0.960622
lowerneck -9.10544 2.53141 -3.995
upperneck 4.40591 4.11677 -3.20797
head 2.99831 1.86205 -0.12456
rclavicle -1.44119e-014 -2.28602e-015
rhumerus -30.9943 29.1612 -107.183
rradius 72.7912
rwrist 5.43122
rhand -28.7597 27.4405
rfingers 7.12502
rthumb -2.11965 -2.52874
lclavicle -1.44119e-014 -2.28602e-015
lhumerus -36.5196 -20.1482 103.898
lradius 81.5926
lwrist 6.5773
lhand -15.6237 -12.9628
lfingers 7.12502
lthumb 10.5632 16.7518
rfemur -24.5962 7.17015 22.8235
rtibia 42.1384
rfoot 2.00296 -1.25067
rtoes -13.3693
lfemur -25.1714 -5.7352 -16.9204
ltibia 50.9449
lfoot -5.92255 5.72944
ltoes -11.976
70
root 11.3771 17.5277 -2.56513 538.197 95.9395 -1978.24
lowerback 26.0854 -1.19499 2.01919
upperback 2.91118 -0.743714 -0.067714
thorax -11.3189 -0.335417 -1.00004
lowerneck -9.67685 2.52634 -3.85264
upperneck 4.0651 4.12996 -3.44244
head 2.99907 1.86717 -0.21755
rclavicle -1.74931e-014 5.96354e-015
rhumerus -30.8712 27.2261 -106.842
rradius 70.0527
rwrist 5.7686
rhand -28.4227 26.9292
rfingers 7.12502
rthumb -1.79413 -3.04298
lclavicle -1.74931e-014 5.96354e-015
lhumerus -36.5036 -18.6401 103.808
lradius 78.7578
lwrist 7.28092
lhand -14.4661 -12.9834
lfingers 7.12502
lthumb 11.6796 16.671
rfemur -25.4064 7.12325 22.9939
rtibia 44.9559
rfoot -1.40566 0.340276
rtoes -10.877
lfemur -25.9121 -6.09964 -16.5122
ltibia 53.3046
lfoot -9.51578 4.84467
ltoes -14.0411
71
root 11.5748 17.2351 -2.58051 537.02 96.0671 -1979
lowerback 26.9412 -1.18934 2.07456
upperback 3.1378 -0.674439 -0.0553205
thorax -11.5086 -0.294639 -1.04023
lowerneck -10.1531 2.5339 -3.6696
upperneck 3.58877 4.14269 -3.68043
head 2.93611 1.87793 -0.321377
rclavicle -1.99033e-014 -3.97569e-015
rhumerus -30.5747 25.1708 -106.334
rradius 66.9657
rwrist 6.2209
rhand -28.1075 26.4699
rfingers 7.12502
rthumb -1.48973 -3.50466
lclavicle -1.99033e-014 -3.97569e-015
lhumerus -36.3634 -17.116 103.535
lradius 75.5576
lwrist 8.49832
lhand -13.3104 -12.9742
lfingers 7.12502
lthumb 12.7939 16.6137
rfemur -26.0598 7.03341 23.2398
rtibia 48.1069
rfoot -5.22286 1.89206
rtoes -8.88185
lfemur -26.3919 -6.39925 -16.1128
ltibia 55.9051
lfoot -13.3031 3.75895
ltoes -15.3129
72
root 11.7745 16.9506 -2.59534 536.03 96.1696 -1979.53
lowerback 27.7091 -1.19076 2.11538
upperback 3.39622 -0.618953 -0.048806
thorax -11.6113 -0.25805 -1.07571
lowerneck -10.5928 2.53556 -3.46481
upperneck 3.03974 4.14127 -3.9544
head 2.84293 1.88383 -0.442384
rclavicle 4.47266e-015 -8.54774e-015
rhumerus -29.993 22.9569 -105.642
rradius 63.1874
rwrist 6.81046
rhand -28.139 26.4237
rfingers 7.12502
rthumb -1.52015 -3.55067
lclavicle 4.47266e-015 -8.54774e-015
lhumerus -36.2072 -15.4081 103.141
lradius 71.9848
lwrist 9.75918
lhand -12.3886 -13.0964
lfingers 7.12502
lthumb 13.6825 16.4338
rfemur -26.6687 6.85511 23.474
rtibia 51.4303
rfoot -9.00958 3.23582
rtoes -7.52957
lfemur -26.6449 -6.66942 -15.8611
ltibia 58.611
lfoot -16.9937 2.71368
ltoes -16.3167
73
root 11.9763 16.698 -2.60663 534.72 96.2807 -1980.37
lowerback 28.4321 -1.1962 2.20747
upperback 3.63281 -0.555198 -0.0500508
thorax -11.7118 -0.22084 -1.15382
lowerneck -10.6465 2.5271 -3.31913
upperneck 2.05062 4.08631 -4.11626
head 2.523 1.88553 -0.527869
rclavicle 2.56432e-014 -5.86415e-015
rhumerus -29.2522 20.5541 -104.779
rradius 58.9025
rwrist 7.42517
rhand -28.3988 26.7585
rfingers 7.12502
rthumb -1.77107 -3.21389
lclavicle 2.56432e-014 -5.86415e-015
lhumerus -36.1013 -13.5718 102.528
lradius 67.9707
lwrist 10.801
lhand -11.8004 -13.3939
lfingers 7.12502
lthumb 14.2493 16.0973
rfemur -27.146 6.64615 23.7752
rtibia 54.7408
rfoot -12.6742 4.264
rtoes -7.00619
lfemur -26.8109 -6.83611 -15.7167
ltibia 61.391
lfoot -20.6118 1.93133
ltoes -16.4515
74
root 12.1806 16.463 -2.61612 533.669 96.3671 -1981.07
lowerback 29.0313 -1.20473 2.29551
upperback 3.8362 -0.501929 -0.0534676
thorax -11.7836 -0.189696 -1.22924
lowerneck -10.447 2.49357 -3.24372
upperneck 0.625938 3.97579 -4.21479
head 2.01117 1.87971 -0.589332
rclavicle -7.95139e-015 1.2424e-014
rhumerus -28.2811 17.9061 -103.722
rradius 54.2719
rwrist 8.27896
rhand -29.0584 27.1915
rfingers 7.12502
rthumb -2.40808 -2.77462
lclavicle -7.95139e-015 1.2424e-014
lhumerus -36.0102 -11.6691 101.737
lradius 63.8383
lwrist 11.4715
lhand -11.5955 -13.4948
lfingers 7.12502
lthumb 14.4468 15.9823
rfemur -27.6439 6.37888 24.0437
rtibia 57.9694
rfoot -16.0562 5.02107
rtoes -6.75963
lfemur -27.0731 -6.77725 -15.7225
ltibia 64.1686
lfoot -24.0582 1.45034
ltoes -16.0436
75
root 12.3893 16.2296 -2.62518 532.667 96.4757 -1981.91
lowerback 29.4416 -1.1973 2.39409
upperback 3.96455 -0.432915 -0.0324107
thorax -11.8426 -0.155027 -1.28925
lowerneck -10.3189 2.45154 -3.19533
upperneck -0.751595 3.86709 -4.29253
head 1.53561 1.87465 -0.637687
rclavicle -1.19271e-015 -6.75868e-015
rhumerus -27.2712 14.8287 -102.444
rradius 49.316
rwrist 9.3584
rhand -29.9077 27.8257
rfingers 7.12502
rthumb -3.22832 -2.12961
lclavicle -1.19271e-015 -6.75868e-015
lhumerus -35.9876 -9.68767 100.836
lradius 59.7903
lwrist 11.4433
lhand -11.7277 -13.1383
lfingers 7.12502
lthumb 14.3194 16.3479
rfemur -28.2568 6.11543 24.2902
rtibia 61.0815
rfoot -19.0781 5.60073
rtoes -6.56034
lfemur -27.3958 -6.52313 -15.7938
ltibia 66.8616
lfoot -27.3375 1.25903
ltoes -15.5717
